<svg id="svg" version="1.1" xmlns="http://www.w3.org/2000/svg" xmlns:xlink="http://www.w3.org/1999/xlink" width="400" height="266.6666666666667" viewBox="0, 0, 400,266.6666666666667"><g id="svgg"><path id="path0" d="M290.458 87.104 C 281.419 89.190,276.548 96.620,277.845 106.345 C 278.763 113.234,281.761 118.237,289.141 125.191 C 299.632 135.079,301.024 137.132,301.036 142.744 C 301.046 147.306,299.474 149.219,295.716 149.219 C 291.067 149.219,288.541 146.435,288.102 140.828 C 288.016 139.723,287.874 138.859,287.788 138.909 C 287.701 138.959,286.341 139.076,284.766 139.168 C 281.370 139.367,279.106 139.557,277.893 139.745 L 277.010 139.881 277.160 142.532 C 277.767 153.329,285.121 160.053,296.224 159.963 C 307.220 159.874,314.279 151.661,313.025 140.416 C 312.226 133.253,309.597 129.110,299.309 118.806 C 290.531 110.015,289.360 108.117,289.644 103.135 C 289.847 99.586,291.007 97.910,293.597 97.426 C 297.577 96.682,300.179 99.252,300.462 104.204 L 300.597 106.575 302.447 106.404 C 303.464 106.310,304.707 106.184,305.208 106.123 C 305.710 106.061,307.341 105.889,308.834 105.738 C 312.141 105.406,311.884 105.706,311.500 102.629 C 310.427 94.037,306.328 88.802,299.543 87.359 C 296.874 86.792,292.360 86.665,290.458 87.104 M41.559 126.107 C 41.657 147.054,41.751 164.212,41.767 164.235 C 41.783 164.259,43.438 164.057,45.443 163.787 C 47.448 163.517,49.792 163.226,50.651 163.140 C 51.510 163.055,52.372 162.934,52.566 162.871 C 52.959 162.743,52.865 120.033,52.468 118.750 C 52.357 118.392,52.347 118.171,52.444 118.260 C 52.542 118.348,52.918 119.520,53.281 120.864 C 55.323 128.435,56.699 132.917,60.666 144.922 C 63.080 152.227,65.261 158.949,65.513 159.860 L 65.970 161.516 67.461 161.347 C 68.280 161.255,70.855 161.011,73.182 160.807 C 75.508 160.602,77.453 160.395,77.502 160.345 C 77.552 160.296,77.517 144.003,77.425 124.138 L 77.258 88.021 71.693 88.021 L 66.128 88.021 66.183 101.107 C 66.237 114.161,66.480 125.525,66.782 129.102 C 66.869 130.140,66.896 130.990,66.840 130.990 C 66.646 130.990,64.109 122.946,58.503 104.557 C 54.863 92.618,53.868 89.402,53.605 88.737 L 53.322 88.021 47.351 88.021 L 41.380 88.021 41.559 126.107 M88.279 88.214 C 88.212 95.495,88.322 159.503,88.402 159.583 C 88.467 159.647,90.546 159.569,93.023 159.408 C 96.960 159.153,104.215 158.741,114.648 158.180 L 117.708 158.015 117.708 152.535 L 117.708 147.054 111.523 147.229 C 108.122 147.325,104.137 147.478,102.669 147.569 L 100.000 147.733 100.000 138.059 L 100.000 128.385 107.292 128.385 L 114.583 128.385 114.583 122.656 L 114.583 116.927 107.292 116.927 L 100.000 116.927 100.000 108.073 L 100.000 99.219 108.859 99.219 L 117.719 99.219 117.648 93.685 L 117.578 88.151 102.930 88.084 C 94.873 88.047,88.280 88.105,88.279 88.214 M123.958 93.615 L 123.958 99.209 129.622 99.279 C 133.921 99.332,135.294 99.427,135.319 99.674 C 135.337 99.854,135.366 112.920,135.384 128.711 L 135.416 157.422 138.606 157.358 C 140.361 157.323,143.014 157.223,144.502 157.136 L 147.207 156.976 147.083 128.097 L 146.959 99.219 152.516 99.219 L 158.073 99.219 158.073 93.620 L 158.073 88.021 141.016 88.021 L 123.958 88.021 123.958 93.615 M165.625 122.424 L 165.625 156.832 171.613 156.736 L 177.601 156.641 177.603 142.513 L 177.604 128.385 184.896 128.385 L 192.188 128.385 192.188 122.656 L 192.188 116.927 184.896 116.927 L 177.604 116.927 177.604 108.073 L 177.604 99.219 186.263 99.219 L 194.922 99.219 194.867 93.685 L 194.813 88.151 180.219 88.084 L 165.625 88.016 165.625 122.424 M207.685 88.346 C 207.579 88.657,207.111 91.182,206.853 92.839 C 206.786 93.268,205.791 98.717,204.641 104.948 C 203.491 111.178,201.925 119.674,201.160 123.828 C 199.499 132.857,195.367 155.043,195.158 156.055 L 195.011 156.771 197.831 156.770 C 199.382 156.769,202.122 156.694,203.919 156.602 L 207.188 156.435 207.519 153.804 C 207.701 152.356,208.112 149.414,208.432 147.266 L 209.014 143.359 214.769 143.289 L 220.524 143.219 220.845 145.112 C 221.021 146.153,221.530 149.173,221.976 151.823 L 222.786 156.641 228.600 156.860 C 231.797 156.981,234.458 157.035,234.512 156.981 C 234.614 156.879,234.547 156.480,232.969 147.917 C 232.116 143.283,230.223 132.896,229.292 127.734 C 229.085 126.589,228.161 121.491,227.237 116.406 C 224.557 101.647,222.800 91.711,222.518 89.714 C 222.437 89.141,222.321 88.525,222.261 88.346 C 222.177 88.096,220.484 88.021,214.974 88.021 C 209.465 88.021,207.770 88.096,207.685 88.346 M242.188 122.615 L 242.188 157.208 249.414 157.373 C 253.389 157.464,259.043 157.658,261.979 157.805 C 264.915 157.952,268.226 158.112,269.336 158.160 L 271.354 158.247 271.354 152.603 L 271.354 146.958 265.690 146.787 C 262.575 146.693,258.708 146.616,257.096 146.615 L 254.167 146.615 254.167 117.318 L 254.167 88.021 248.177 88.021 L 242.188 88.021 242.188 122.615 M321.354 124.327 L 321.354 160.633 323.242 160.778 C 324.281 160.858,326.654 160.993,328.516 161.078 C 330.378 161.163,332.165 161.297,332.487 161.374 L 333.073 161.515 333.073 145.336 L 333.073 129.157 339.258 129.227 L 345.443 129.297 345.510 145.757 L 345.577 162.217 346.421 162.351 C 347.604 162.538,355.715 163.281,356.579 163.281 L 357.292 163.281 357.292 125.651 L 357.292 88.021 351.432 88.021 L 345.573 88.021 345.573 102.865 L 345.573 117.708 341.315 117.708 C 338.974 117.708,336.161 117.633,335.065 117.540 L 333.073 117.371 333.073 102.696 L 333.073 88.021 327.214 88.021 L 321.354 88.021 321.354 124.327 M215.494 107.552 C 215.727 109.486,216.268 113.411,216.695 116.276 C 217.123 119.141,217.752 123.359,218.094 125.651 C 218.436 127.943,218.784 130.316,218.866 130.924 L 219.017 132.031 214.847 132.031 C 211.681 132.031,210.679 131.953,210.683 131.706 C 210.686 131.527,210.923 129.857,211.209 127.995 C 211.494 126.133,211.895 123.438,212.099 122.005 C 213.219 114.141,214.618 104.734,214.753 104.167 C 214.961 103.293,215.003 103.484,215.494 107.552 " stroke="none" fill="#ea1c24" fill-rule="evenodd"></path><path id="path1" d="M0.000 133.333 L 0.000 266.667 200.000 266.667 L 400.000 266.667 400.000 133.333 L 400.000 0.000 200.000 0.000 L 0.000 0.000 0.000 133.333 M299.543 87.359 C 306.328 88.802,310.427 94.037,311.500 102.629 C 311.884 105.706,312.141 105.406,308.834 105.738 C 307.341 105.889,305.710 106.061,305.208 106.123 C 304.707 106.184,303.464 106.310,302.447 106.404 L 300.597 106.575 300.462 104.204 C 299.959 95.384,290.141 94.413,289.644 103.135 C 289.360 108.117,290.531 110.015,299.309 118.806 C 309.597 129.110,312.226 133.253,313.025 140.416 C 314.279 151.661,307.220 159.874,296.224 159.963 C 285.121 160.053,277.767 153.329,277.160 142.532 L 277.010 139.881 277.893 139.745 C 279.106 139.557,281.370 139.367,284.766 139.168 C 286.341 139.076,287.701 138.959,287.788 138.909 C 287.874 138.859,288.016 139.723,288.102 140.828 C 288.541 146.435,291.067 149.219,295.716 149.219 C 299.474 149.219,301.046 147.306,301.036 142.744 C 301.024 137.132,299.632 135.079,289.141 125.191 C 281.761 118.237,278.763 113.234,277.845 106.345 C 276.079 93.096,285.942 84.467,299.543 87.359 M53.605 88.737 C 53.868 89.402,54.863 92.618,58.503 104.557 C 64.109 122.946,66.646 130.990,66.840 130.990 C 66.896 130.990,66.869 130.140,66.782 129.102 C 66.480 125.525,66.237 114.161,66.183 101.107 L 66.128 88.021 71.693 88.021 L 77.258 88.021 77.425 124.138 C 77.517 144.003,77.552 160.296,77.502 160.345 C 77.453 160.395,75.508 160.602,73.182 160.807 C 70.855 161.011,68.280 161.255,67.461 161.347 L 65.970 161.516 65.513 159.860 C 65.261 158.949,63.080 152.227,60.666 144.922 C 56.699 132.917,55.323 128.435,53.281 120.864 C 52.918 119.520,52.542 118.348,52.444 118.260 C 52.347 118.171,52.357 118.392,52.468 118.750 C 52.865 120.033,52.959 162.743,52.566 162.871 C 52.372 162.934,51.510 163.055,50.651 163.140 C 49.792 163.226,47.448 163.517,45.443 163.787 C 43.438 164.057,41.783 164.259,41.767 164.235 C 41.751 164.212,41.657 147.054,41.559 126.107 L 41.380 88.021 47.351 88.021 L 53.322 88.021 53.605 88.737 M117.648 93.685 L 117.719 99.219 108.859 99.219 L 100.000 99.219 100.000 108.073 L 100.000 116.927 107.292 116.927 L 114.583 116.927 114.583 122.656 L 114.583 128.385 107.292 128.385 L 100.000 128.385 100.000 138.059 L 100.000 147.733 102.669 147.569 C 104.137 147.478,108.122 147.325,111.523 147.229 L 117.708 147.054 117.708 152.535 L 117.708 158.015 114.648 158.180 C 104.215 158.741,96.960 159.153,93.023 159.408 C 90.546 159.569,88.467 159.647,88.402 159.583 C 88.322 159.503,88.212 95.495,88.279 88.214 C 88.280 88.105,94.873 88.047,102.930 88.084 L 117.578 88.151 117.648 93.685 M158.073 93.620 L 158.073 99.219 152.516 99.219 L 146.959 99.219 147.083 128.097 L 147.207 156.976 144.502 157.136 C 143.014 157.223,140.361 157.323,138.606 157.358 L 135.416 157.422 135.384 128.711 C 135.366 112.920,135.337 99.854,135.319 99.674 C 135.294 99.427,133.921 99.332,129.622 99.279 L 123.958 99.209 123.958 93.615 L 123.958 88.021 141.016 88.021 L 158.073 88.021 158.073 93.620 M194.867 93.685 L 194.922 99.219 186.263 99.219 L 177.604 99.219 177.604 108.073 L 177.604 116.927 184.896 116.927 L 192.188 116.927 192.188 122.656 L 192.188 128.385 184.896 128.385 L 177.604 128.385 177.603 142.513 L 177.601 156.641 171.613 156.736 L 165.625 156.832 165.625 122.424 L 165.625 88.016 180.219 88.084 L 194.813 88.151 194.867 93.685 M222.261 88.346 C 222.321 88.525,222.437 89.141,222.518 89.714 C 222.800 91.711,224.557 101.647,227.237 116.406 C 228.161 121.491,229.085 126.589,229.292 127.734 C 230.223 132.896,232.116 143.283,232.969 147.917 C 234.547 156.480,234.614 156.879,234.512 156.981 C 234.458 157.035,231.797 156.981,228.600 156.860 L 222.786 156.641 221.976 151.823 C 221.530 149.173,221.021 146.153,220.845 145.112 L 220.524 143.219 214.769 143.289 L 209.014 143.359 208.432 147.266 C 208.112 149.414,207.701 152.356,207.519 153.804 L 207.188 156.435 203.919 156.602 C 202.122 156.694,199.382 156.769,197.831 156.770 L 195.011 156.771 195.158 156.055 C 195.367 155.043,199.499 132.857,201.160 123.828 C 201.925 119.674,203.491 111.178,204.641 104.948 C 205.791 98.717,206.786 93.268,206.853 92.839 C 207.111 91.182,207.579 88.657,207.685 88.346 C 207.770 88.096,209.465 88.021,214.974 88.021 C 220.484 88.021,222.177 88.096,222.261 88.346 M254.167 117.318 L 254.167 146.615 257.096 146.615 C 258.708 146.616,262.575 146.693,265.690 146.787 L 271.354 146.958 271.354 152.603 L 271.354 158.247 269.336 158.160 C 268.226 158.112,264.915 157.952,261.979 157.805 C 259.043 157.658,253.389 157.464,249.414 157.373 L 242.188 157.208 242.188 122.615 L 242.188 88.021 248.177 88.021 L 254.167 88.021 254.167 117.318 M333.073 102.696 L 333.073 117.371 335.065 117.540 C 336.161 117.633,338.974 117.708,341.315 117.708 L 345.573 117.708 345.573 102.865 L 345.573 88.021 351.432 88.021 L 357.292 88.021 357.292 125.651 L 357.292 163.281 356.579 163.281 C 355.715 163.281,347.604 162.538,346.421 162.351 L 345.577 162.217 345.510 145.757 L 345.443 129.297 339.258 129.227 L 333.073 129.157 333.073 145.336 L 333.073 161.515 332.487 161.374 C 332.165 161.297,330.378 161.163,328.516 161.078 C 326.654 160.993,324.281 160.858,323.242 160.778 L 321.354 160.633 321.354 124.327 L 321.354 88.021 327.214 88.021 L 333.073 88.021 333.073 102.696 M214.753 104.167 C 214.618 104.734,213.219 114.141,212.099 122.005 C 211.895 123.438,211.494 126.133,211.209 127.995 C 210.923 129.857,210.686 131.527,210.683 131.706 C 210.679 131.953,211.681 132.031,214.847 132.031 L 219.017 132.031 218.866 130.924 C 218.784 130.316,218.436 127.943,218.094 125.651 C 217.752 123.359,217.123 119.141,216.695 116.276 C 216.268 113.411,215.727 109.486,215.494 107.552 C 215.003 103.484,214.961 103.293,214.753 104.167 " stroke="none" fill="#0b0b0b" fill-rule="evenodd"></path></g></svg>